<svg width="835" height="900" viewBox="0 0 835 900" fill="none" xmlns="http://www.w3.org/2000/svg">
<path d="M500.088 279.426V278.094H276.805L164.781 472.129L276.805 666.164H500.858L612.885 472.129L500.856 278.094H500.088V279.426L498.934 280.093L609.807 472.129L499.318 663.499H278.345L167.856 472.129L278.345 280.759H500.088V279.426L498.934 280.093L500.088 279.426Z" fill="#7D97F4" fill-opacity="0.5"/>
<path d="M487.817 300.678V295.348H286.768L184.705 472.129L286.768 648.91H490.895L592.958 472.129L490.895 295.348H487.817V300.678L483.202 303.343L580.649 472.129L484.742 638.25H292.921L197.011 472.129L292.921 306.007H487.817V300.678L483.202 303.343L487.817 300.678Z" fill="#7D97F4" fill-opacity="0.5"/>
<path d="M177.198 578.922L132.737 650.492L159.475 698.999L161.809 697.712L135.825 650.572L179.463 580.326L177.198 578.922Z" fill="#7D97F4" fill-opacity="0.5"/>
<path d="M182.059 542.298L108.677 660.421L133.118 704.339L135.444 703.044L111.768 660.496L184.324 543.702L182.059 542.298Z" fill="#7D97F4" fill-opacity="0.5"/>
<path d="M184.678 579.626C184.678 583.13 181.835 585.97 178.331 585.97C174.824 585.97 171.983 583.13 171.983 579.626C171.983 576.119 174.824 573.278 178.331 573.278C181.835 573.278 184.678 576.119 184.678 579.626Z" fill="#7D97F4" fill-opacity="0.5"/>
<path d="M189.539 542.998C189.539 546.505 186.696 549.346 183.192 549.346C179.687 549.346 176.844 546.505 176.844 542.998C176.844 539.494 179.687 536.654 183.192 536.654C186.696 536.654 189.539 539.494 189.539 542.998Z" fill="#7D97F4" fill-opacity="0.5"/>
<path d="M223.022 637.326C223.022 640.83 220.181 643.673 216.674 643.673C213.17 643.673 210.329 640.83 210.329 637.326C210.329 633.819 213.17 630.976 216.674 630.976C220.181 630.976 223.022 633.819 223.022 637.326Z" fill="#7D97F4" fill-opacity="0.5"/>
<path d="M95.9629 857.4C95.9629 860.905 93.1197 863.748 89.6155 863.748C86.1087 863.748 83.268 860.905 83.268 857.4C83.268 853.894 86.1087 851.054 89.6155 851.054C93.1197 851.054 95.9629 853.894 95.9629 857.4Z" fill="#7D97F4" fill-opacity="0.5"/>
<path d="M59.3758 946.827L249.502 617.521L247.194 616.189L57.0681 945.495" fill="#7D97F4" fill-opacity="0.5"/>
<path d="M90.7693 858.066L217.828 637.992L215.52 636.66L88.4617 856.734" fill="#7D97F4" fill-opacity="0.5"/>
<path d="M-28.3297 1028.33L161.796 699.02L159.488 697.688L-30.6374 1026.99" fill="#7D97F4" fill-opacity="0.5"/>
<path d="M-54.6923 1033.66L135.436 704.358L133.128 703.026L-57 1032.33" fill="#7D97F4" fill-opacity="0.5"/>
<path d="M401.963 708.102L362.28 780.653L308.457 781.223L308.486 783.888L363.868 783.302L404.303 709.381L401.963 708.102Z" fill="#7D97F4" fill-opacity="0.5"/>
<path d="M431.46 685.849L365.477 806.477L316.784 806.8L316.803 809.464L367.063 809.134L433.797 687.128L431.46 685.849Z" fill="#7D97F4" fill-opacity="0.5"/>
<path d="M400.01 703.212C396.959 704.939 395.882 708.811 397.609 711.865C399.333 714.916 403.205 715.99 406.256 714.266C409.31 712.539 410.387 708.667 408.66 705.618C406.936 702.565 403.064 701.488 400.01 703.212Z" fill="#7D97F4" fill-opacity="0.5"/>
<path d="M429.506 680.964C426.453 682.685 425.379 686.56 427.103 689.611C428.827 692.665 432.699 693.742 435.75 692.015C438.804 690.291 439.88 686.419 438.156 683.365C436.43 680.314 432.558 679.237 429.506 680.964Z" fill="#7D97F4" fill-opacity="0.5"/>
<path d="M330.913 698.218C327.859 699.945 326.785 703.817 328.507 706.871C330.233 709.922 334.105 710.996 337.156 709.272C340.21 707.545 341.284 703.673 339.563 700.625C337.836 697.571 333.964 696.494 330.913 698.218Z" fill="#7D97F4" fill-opacity="0.5"/>
<path d="M144.27 994.321L337.42 666.78L335.126 665.426L141.973 992.968" fill="#7D97F4" fill-opacity="0.5"/>
<path d="M206.1 923.317L335.182 704.425L332.887 703.071L203.803 921.963" fill="#7D97F4" fill-opacity="0.5"/>
<path d="M116.468 1110.77L309.619 783.232L307.324 781.879L114.174 1109.42" fill="#7D97F4" fill-opacity="0.5"/>
<path d="M124.79 1136.35L317.941 808.809L315.646 807.455L122.496 1135" fill="#7D97F4" fill-opacity="0.5"/>
<path d="M600.59 365.429L645.052 293.859L618.313 245.352L615.979 246.639L641.966 293.779L598.325 364.025L600.59 365.429Z" fill="#7D97F4" fill-opacity="0.5"/>
<path d="M595.729 402.056L669.112 283.93L644.673 240.012L642.344 241.31L666.023 283.858L593.467 400.649L595.729 402.056Z" fill="#7D97F4" fill-opacity="0.5"/>
<path d="M593.11 364.728C593.11 361.221 595.953 358.381 599.457 358.381C602.964 358.381 605.808 361.221 605.808 364.728C605.808 368.232 602.964 371.076 599.457 371.076C595.953 371.076 593.11 368.232 593.11 364.728Z" fill="#7D97F4" fill-opacity="0.5"/>
<path d="M588.252 401.353C588.252 397.846 591.093 395.005 594.599 395.005C598.104 395.005 600.947 397.846 600.947 401.353C600.947 404.86 598.104 407.7 594.599 407.7C591.093 407.7 588.252 404.86 588.252 401.353Z" fill="#7D97F4" fill-opacity="0.5"/>
<path d="M554.764 307.025C554.764 303.521 557.607 300.678 561.111 300.678C564.621 300.678 567.461 303.521 567.461 307.025C567.461 310.532 564.621 313.375 561.111 313.375C557.607 313.375 554.764 310.532 554.764 307.025Z" fill="#7D97F4" fill-opacity="0.5"/>
<path d="M681.825 86.9504C681.825 83.4463 684.668 80.603 688.173 80.603C691.679 80.603 694.523 83.4463 694.523 86.9504C694.523 90.4573 691.679 93.3005 688.173 93.3005C684.668 93.3005 681.825 90.4573 681.825 86.9504Z" fill="#7D97F4" fill-opacity="0.5"/>
<path d="M713.219 -1.813C713.219 -5.31717 716.062 -8.16043 719.566 -8.16043C723.073 -8.16043 725.914 -5.31717 725.914 -1.813C725.914 1.69383 723.073 4.53442 719.566 4.53442C716.062 4.53442 713.219 1.69383 713.219 -1.813Z" fill="#7D97F4" fill-opacity="0.5"/>
<path d="M718.412 -2.47925L528.289 326.83L530.597 328.162L720.72 -1.14688" fill="#7D97F4" fill-opacity="0.5"/>
<path d="M687.019 86.2841L559.958 306.359L562.265 307.692L689.327 87.6165" fill="#7D97F4" fill-opacity="0.5"/>
<path d="M806.118 -83.9759L615.992 245.331L618.3 246.663L808.425 -82.6435" fill="#7D97F4" fill-opacity="0.5"/>
<path d="M832.48 -89.3133L642.355 239.993L644.662 241.326L834.788 -87.9809" fill="#7D97F4" fill-opacity="0.5"/>
<path d="M375.822 236.249L415.508 163.696L469.331 163.128L469.305 160.463L413.92 161.049L373.485 234.97L375.822 236.249Z" fill="#7D97F4" fill-opacity="0.5"/>
<path d="M346.331 258.5L412.311 137.874L461.001 137.551L460.985 134.887L410.725 135.22L343.994 257.224L346.331 258.5Z" fill="#7D97F4" fill-opacity="0.5"/>
<path d="M377.778 241.136C380.829 239.412 381.906 235.54 380.182 232.489C378.455 229.438 374.583 228.361 371.532 230.086C368.478 231.81 367.404 235.682 369.128 238.735C370.855 241.787 374.727 242.863 377.778 241.136Z" fill="#7D97F4" fill-opacity="0.5"/>
<path d="M348.284 263.387C351.335 261.663 352.412 257.791 350.685 254.74C348.961 251.686 345.089 250.61 342.035 252.336C338.987 254.06 337.91 257.932 339.634 260.984C341.359 264.037 345.233 265.114 348.284 263.387Z" fill="#7D97F4" fill-opacity="0.5"/>
<path d="M206.058 363.905C209.112 362.181 210.186 358.306 208.459 355.255C206.737 352.204 202.865 351.127 199.812 352.851C196.76 354.575 195.684 358.45 197.408 361.501C199.132 364.555 203.007 365.629 206.058 363.905Z" fill="#7D97F4" fill-opacity="0.5"/>
<path d="M446.878 246.133C449.932 244.406 451.006 240.534 449.282 237.483C447.555 234.432 443.683 233.355 440.632 235.079C437.581 236.803 436.504 240.675 438.228 243.729C439.955 246.78 443.827 247.857 446.878 246.133Z" fill="#7D97F4" fill-opacity="0.5"/>
<path d="M575.962 27.2357C579.011 25.5116 580.087 21.6397 578.363 18.5886C576.636 15.5348 572.764 14.4582 569.713 16.185C566.662 17.9091 565.585 21.781 567.309 24.8321C569.036 27.8859 572.908 28.9598 575.962 27.2357Z" fill="#7D97F4" fill-opacity="0.5"/>
<path d="M633.521 -49.9681L440.371 277.572L442.665 278.925L635.815 -48.6144" fill="#7D97F4" fill-opacity="0.5"/>
<path d="M571.69 21.032L442.609 239.929L444.903 241.283L573.985 22.3857" fill="#7D97F4" fill-opacity="0.5"/>
<path d="M661.322 -166.421L468.17 161.119L470.467 162.472L663.617 -165.067" fill="#7D97F4" fill-opacity="0.5"/>
<path d="M652.998 -192L459.845 135.542L462.142 136.896L655.292 -190.646" fill="#7D97F4" fill-opacity="0.5"/>
</svg>
