<svg width="426" height="369" viewBox="0 0 426 369" fill="none" xmlns="http://www.w3.org/2000/svg">
    <path
        d="M316.288 5.56226V9.47685e-06H106.5L0 184.5L106.5 369H319.5L426 184.5L319.5 9.47685e-06H316.288V5.56226L311.472 8.34339L413.156 184.5L313.08 357.875H112.92L12.8409 184.5L112.92 11.1245H316.288V5.56226L311.472 8.34339L316.288 5.56226"
        fill="#7D97F4" />
    <path
        d="M210.08 221.503L209.869 221.749C208.841 222.925 204.154 227.71 196.874 227.699C192.187 227.697 186.34 225.752 179.509 219.454L178.877 219.296C178.877 219.296 178.74 219.328 178.467 219.386C177.646 219.555 175.655 219.903 173.145 219.903C170.079 219.905 166.245 219.386 162.786 217.447C159.326 215.508 156.201 212.18 154.467 206.374C154.36 206.016 153.983 205.808 153.622 205.912L153.376 205.975C152.873 206.092 151.647 206.339 150.198 206.336C148.825 206.339 147.258 206.117 145.891 205.414C144.523 204.706 143.334 203.546 142.612 201.517L142.196 201.099L141.608 201.162L141.392 201.288C140.35 201.878 135.677 204.299 130.079 204.293C124.609 204.274 118.27 202.078 113.165 193.502L112.746 193.187L112.623 193.152C111.964 192.963 108.814 191.94 105.576 189.255C102.338 186.564 99.0068 182.238 97.8993 175.316C97.6422 173.705 97.5274 172.166 97.5274 170.705C97.5274 164.719 99.439 159.991 101.351 156.75C102.308 155.131 103.265 153.884 103.979 153.05C104.334 152.632 104.629 152.317 104.835 152.106L105.067 151.874L105.144 151.803C105.343 151.62 105.417 151.335 105.329 151.078L105.258 150.838C105.119 150.337 104.832 149.104 104.832 147.567C104.832 145.962 105.141 144.042 106.224 142.231C107.307 140.421 109.158 138.69 112.382 137.462C112.637 137.364 112.809 137.123 112.823 136.852C112.823 136.852 112.834 136.571 112.899 136.035C113.126 134.161 114.009 129.392 117.195 124.978C120.39 120.567 125.826 116.462 135.436 115.792C135.715 115.773 135.956 115.582 136.04 115.314L136.128 115.057C136.595 113.741 138.98 107.637 144.742 101.894C150.51 96.1543 159.619 90.7477 173.714 90.7423C176.935 90.7423 180.419 91.0266 184.185 91.6556L184.77 91.4779L185.112 91.1743C186.753 89.7605 194.109 84.0203 204.348 84.0285C209.878 84.0313 216.266 85.6803 223.16 90.6138L223.849 90.6766L223.948 90.6328C224.443 90.4195 226.74 89.5171 229.573 89.5199C233.175 89.5445 237.575 90.8735 240.714 96.9938C240.854 97.2673 241.154 97.415 241.455 97.3548L241.734 97.3083C242.306 97.2208 243.722 97.0376 245.697 97.0376C252.433 97.054 265.48 99.1105 273.845 114.124C273.979 114.365 274.245 114.501 274.518 114.471L274.789 114.452C274.975 114.441 275.254 114.43 275.609 114.43C277.433 114.428 281.278 114.728 285.235 116.845C289.193 118.965 293.295 122.867 295.726 130.237L296.117 130.655L296.237 130.71C296.885 131 299.956 132.49 302.836 135.564C305.716 138.646 308.415 143.271 308.418 149.973L308.415 150.34L308.707 150.909L308.765 150.95C309.408 151.434 315.025 155.88 315.022 164.91C315.022 167.057 314.705 169.469 313.925 172.163L313.985 172.691L314.092 172.888C314.59 173.845 316.638 178.16 316.633 183.43C316.633 185.804 316.222 188.372 315.082 190.939C313.009 195.599 311.01 198.386 309.555 200C308.825 200.804 308.232 201.318 307.832 201.624L307.378 201.938L307.274 202.001L307.255 202.012L307.315 202.13L307.258 202.012H307.255L307.315 202.13L307.258 202.012C307.023 202.127 306.875 202.371 306.881 202.633V202.781C306.881 203.812 306.788 210.113 304.709 217.349C302.634 224.59 298.584 232.726 290.751 237.572C285.739 240.678 279.561 241.789 273.353 241.789C266.177 241.789 258.982 240.306 253.595 238.822C250.901 238.078 248.659 237.337 247.092 236.779C245.522 236.224 244.644 235.857 244.641 235.857C244.291 235.712 243.892 235.879 243.747 236.226C243.602 236.576 243.769 236.976 244.119 237.121C244.16 237.131 258.632 243.148 273.353 243.156C279.717 243.153 286.149 242.029 291.473 238.734C299.718 233.623 303.894 225.142 306.025 217.726C308.155 210.301 308.248 203.894 308.248 202.781V202.614L307.564 202.622L307.871 203.235C308.027 203.158 312.09 201.039 316.332 191.495C317.562 188.727 318 185.962 318 183.43C317.995 177.006 315.205 172.073 315.178 172.018L314.582 172.354L315.238 172.543C316.053 169.734 316.389 167.191 316.389 164.91C316.381 154.617 309.569 149.839 309.49 149.787L309.098 150.348L309.782 150.356L309.785 149.973C309.79 142.417 306.495 137.235 303.222 134C299.943 130.757 296.688 129.414 296.636 129.392L296.377 130.024L297.025 129.81C294.503 122.131 290.12 117.895 285.878 115.639C281.639 113.377 277.578 113.063 275.609 113.063C274.841 113.063 274.389 113.109 274.368 113.112L274.441 113.793L275.04 113.459C266.388 97.899 252.676 95.6538 245.697 95.6702C242.954 95.6702 241.226 96.0066 241.193 96.0148L241.324 96.6848L241.934 96.373C238.617 89.8042 233.522 88.1252 229.573 88.1525C226.007 88.1552 223.321 89.4159 223.269 89.4378L223.559 90.0559L223.959 89.5007C216.857 84.4141 210.151 82.6585 204.348 82.6612C192.045 82.6749 183.887 90.4387 183.827 90.4879L184.3 90.9829L184.412 90.3074C180.578 89.6648 177.017 89.3749 173.714 89.3749C158.295 89.3667 148.497 95.744 142.628 102.121C136.754 108.496 134.758 114.846 134.736 114.903L135.39 115.109L135.343 114.428C123.945 115.193 117.868 120.805 114.781 126.201C111.679 131.591 111.461 136.732 111.455 136.792L112.139 136.822L111.896 136.182C108.433 137.495 106.289 139.448 105.048 141.529C103.806 143.612 103.464 145.792 103.464 147.567C103.464 149.842 104.02 151.472 104.036 151.519L104.681 151.3L104.222 150.794C104.162 150.854 96.171 158.128 96.16 170.705C96.16 172.237 96.2803 173.85 96.5483 175.532C97.779 183.285 101.744 188.065 105.39 190.855C109.035 193.649 112.35 194.497 112.407 194.511L112.576 193.849L111.989 194.199C117.269 203.153 124.229 205.682 130.079 205.66C136.924 205.652 142.267 202.354 142.325 202.327L141.966 201.744L141.321 201.971C142.142 204.312 143.626 205.794 145.267 206.631C146.908 207.471 148.686 207.703 150.198 207.703C152.334 207.703 153.961 207.236 153.999 207.227L153.811 206.568L153.154 206.765C154.967 212.872 158.367 216.553 162.119 218.642C165.868 220.737 169.929 221.27 173.145 221.27C176.662 221.27 179.178 220.627 179.213 220.619L179.046 219.957L178.582 220.461C185.585 226.928 191.793 229.069 196.874 229.067C205.92 229.048 211.103 222.402 211.155 222.345C211.387 222.047 211.335 221.617 211.04 221.385C210.742 221.153 210.312 221.204 210.08 221.503"
        fill="#7D97F4" />
    <path d="M194.041 183.777H191.976V142.499H194.041V183.777Z" fill="#7D97F4" />
    <path d="M198.731 183.777H196.666V142.499H198.731V183.777Z" fill="#7D97F4" />
    <path d="M203.424 183.777H201.359V142.499H203.424V183.777Z" fill="#7D97F4" />
    <path d="M208.114 183.777H206.049V142.499H208.114V183.777Z" fill="#7D97F4" />
    <path d="M212.801 183.777H210.739V142.499H212.801V183.777Z" fill="#7D97F4" />
    <path d="M217.494 183.777H215.429V142.499H217.494V183.777Z" fill="#7D97F4" />
    <path d="M222.184 183.777H220.119V142.499H222.184V183.777Z" fill="#7D97F4" />
    <path d="M227.719 176.178V178.242H186.441V176.178H227.719Z" fill="#7D97F4" />
    <path d="M227.719 171.485V173.549H186.441V171.485H227.719Z" fill="#7D97F4" />
    <path d="M227.719 166.797V168.859H186.441V166.797H227.719Z" fill="#7D97F4" />
    <path d="M227.719 162.105V164.169H186.441V162.105H227.719Z" fill="#7D97F4" />
    <path d="M227.719 157.414V159.479H186.441V157.414H227.719Z" fill="#7D97F4" />
    <path d="M227.719 152.725V154.787H186.441V152.725H227.719Z" fill="#7D97F4" />
    <path d="M227.719 148.035V150.097H186.441V148.035H227.719Z" fill="#7D97F4" />
    <path
        d="M134.919 115.606L170.892 149.563L171.362 149.749H190.519C190.896 149.749 191.202 149.443 191.202 149.065C191.202 148.688 190.896 148.382 190.519 148.382H171.633L135.857 114.611C135.584 114.354 135.152 114.365 134.892 114.641C134.632 114.914 134.646 115.346 134.919 115.606"
        fill="#7D97F4" />
    <path
        d="M126.6 117.283L164.041 154.242L164.522 154.439H190.519C190.896 154.439 191.202 154.133 191.202 153.755C191.202 153.378 190.896 153.072 190.519 153.072H164.804L127.56 116.309C127.292 116.044 126.86 116.046 126.595 116.314C126.329 116.585 126.332 117.017 126.6 117.283"
        fill="#7D97F4" />
    <path
        d="M224.932 163.822H247.124L307.19 203.194C307.504 203.401 307.928 203.314 308.136 202.997C308.344 202.682 308.254 202.258 307.939 202.051L247.702 162.567L247.327 162.455H224.932C224.555 162.455 224.249 162.761 224.249 163.138C224.249 163.516 224.555 163.822 224.932 163.822"
        fill="#7D97F4" />
    <path
        d="M111.639 137.287L140.46 168.293L140.96 168.509H189.934C190.311 168.509 190.617 168.206 190.617 167.826C190.617 167.448 190.311 167.145 189.934 167.145L141.258 167.142L112.64 136.357C112.383 136.081 111.95 136.065 111.674 136.322C111.395 136.579 111.382 137.011 111.639 137.287"
        fill="#7D97F4" />
    <path
        d="M104.178 151.759L123.606 172.98L124.112 173.202H189.933C190.311 173.202 190.617 172.896 190.617 172.518C190.617 172.141 190.311 171.834 189.933 171.834H124.412L105.187 150.837C104.93 150.558 104.498 150.539 104.219 150.794C103.943 151.048 103.924 151.483 104.178 151.759Z"
        fill="#7D97F4" />
    <path
        d="M128.266 137.446H147.307C147.685 137.446 147.991 137.14 147.991 136.762C147.991 136.385 147.685 136.079 147.307 136.079H128.266C127.888 136.079 127.582 136.385 127.582 136.762C127.582 137.14 127.888 137.446 128.266 137.446Z"
        fill="#7D97F4" />
    <path
        d="M140.99 149.035L140.121 167.795C140.101 168.173 140.394 168.493 140.771 168.509C141.149 168.528 141.469 168.236 141.485 167.858L142.355 149.098C142.374 148.721 142.081 148.401 141.704 148.382C141.327 148.365 141.007 148.658 140.99 149.035Z"
        fill="#7D97F4" />
    <path
        d="M127.787 136.822H127.103C127.103 137.768 126.338 138.534 125.391 138.537C124.442 138.534 123.677 137.768 123.677 136.822C123.677 135.876 124.442 135.11 125.391 135.107C126.338 135.11 127.103 135.876 127.103 136.822H127.787H128.471C128.471 135.121 127.092 133.74 125.391 133.74C123.688 133.74 122.309 135.121 122.309 136.822C122.309 138.526 123.688 139.904 125.391 139.904C127.092 139.904 128.471 138.526 128.471 136.822H127.787Z"
        fill="#7D97F4" />
    <path
        d="M173.968 122.913H193.007C193.385 122.913 193.691 122.607 193.691 122.23C193.691 121.852 193.385 121.546 193.007 121.546H173.968C173.591 121.546 173.285 121.852 173.285 122.23C173.285 122.607 173.591 122.913 173.968 122.913Z"
        fill="#7D97F4" />
    <path
        d="M173.49 122.29H172.806C172.806 123.236 172.04 124.002 171.091 124.005C170.145 124.002 169.379 123.236 169.377 122.29C169.379 121.344 170.145 120.578 171.091 120.575C172.04 120.578 172.806 121.344 172.806 122.29H173.49H174.173C174.173 120.589 172.795 119.208 171.091 119.208C169.39 119.208 168.012 120.589 168.009 122.29C168.012 123.994 169.39 125.372 171.091 125.372C172.795 125.372 174.173 123.994 174.173 122.29H173.49Z"
        fill="#7D97F4" />
    <path
        d="M240.195 134.53H221.153C220.776 134.53 220.469 134.837 220.469 135.214C220.469 135.591 220.776 135.898 221.153 135.898H240.195C240.572 135.898 240.878 135.591 240.878 135.214C240.878 134.837 240.572 134.53 240.195 134.53Z"
        fill="#7D97F4" />
    <path
        d="M240.673 135.277H239.99C239.99 136.978 241.368 138.356 243.069 138.356C244.77 138.356 246.151 136.978 246.151 135.277C246.151 133.573 244.77 132.195 243.069 132.195C241.368 132.195 239.99 133.573 239.99 135.277H240.673H241.357C241.357 134.328 242.125 133.562 243.069 133.562C244.015 133.562 244.781 134.328 244.784 135.277C244.781 136.221 244.015 136.986 243.069 136.989C242.125 136.986 241.357 136.221 241.357 135.277H240.673Z"
        fill="#7D97F4" />
    <path
        d="M262.111 194.757H243.069C242.692 194.757 242.385 195.063 242.385 195.441C242.385 195.818 242.692 196.124 243.069 196.124H262.111C262.488 196.124 262.794 195.818 262.794 195.441C262.794 195.063 262.488 194.757 262.111 194.757Z"
        fill="#7D97F4" />
    <path
        d="M262.587 195.503H261.903C261.906 197.204 263.284 198.583 264.985 198.585C266.689 198.583 268.067 197.204 268.067 195.503C268.067 193.8 266.689 192.421 264.985 192.421C263.284 192.421 261.906 193.8 261.903 195.503H262.587H263.27C263.273 194.554 264.039 193.789 264.985 193.789C265.934 193.789 266.7 194.554 266.7 195.503C266.7 196.45 265.934 197.215 264.985 197.218C264.039 197.215 263.273 196.45 263.27 195.503H262.587Z"
        fill="#7D97F4" />
    <path
        d="M224.932 194.716H224.249C224.249 196.417 225.627 197.795 227.331 197.795C229.032 197.795 230.41 196.417 230.41 194.716C230.41 193.012 229.032 191.634 227.331 191.634C225.627 191.634 224.249 193.012 224.249 194.716H224.932H225.616C225.619 193.767 226.384 193.001 227.331 193.001C228.274 193.001 229.04 193.767 229.043 194.716C229.04 195.662 228.274 196.428 227.331 196.428C226.384 196.428 225.619 195.662 225.616 194.716H224.932Z"
        fill="#7D97F4" />
    <path
        d="M274.86 212.842H244.379C244.001 212.842 243.695 213.148 243.695 213.525C243.695 213.903 244.001 214.209 244.379 214.209H274.86C275.237 214.209 275.544 213.903 275.544 213.525C275.544 213.148 275.237 212.842 274.86 212.842Z"
        fill="#7D97F4" />
    <path
        d="M274.75 213.624H274.067C274.067 215.5 275.587 217.023 277.463 217.023C279.339 217.023 280.86 215.5 280.86 213.624C280.86 211.748 279.339 210.227 277.463 210.225C275.587 210.227 274.067 211.748 274.067 213.624H274.75H275.434C275.434 212.503 276.342 211.595 277.463 211.592C278.585 211.595 279.49 212.503 279.493 213.624C279.49 214.745 278.582 215.653 277.463 215.656C276.342 215.653 275.434 214.745 275.434 213.624H274.75Z"
        fill="#7D97F4" />
    <path
        d="M253.614 306.954H252.93C252.93 308.83 254.451 310.348 256.327 310.351C258.206 310.351 259.726 308.83 259.729 306.954C259.729 305.076 258.206 303.552 256.327 303.552C254.451 303.552 252.93 305.076 252.93 306.954H253.614H254.298C254.301 305.83 255.208 304.923 256.327 304.92C257.451 304.923 258.359 305.83 258.362 306.954C258.359 308.073 257.451 308.981 256.327 308.984C255.208 308.981 254.301 308.073 254.298 306.954H253.614Z"
        fill="#7D97F4" />
    <path
        d="M240.356 297.695H239.672C239.672 299.571 241.193 301.091 243.069 301.091C244.948 301.091 246.468 299.571 246.468 297.695C246.468 295.819 244.948 294.298 243.069 294.298C241.193 294.298 239.672 295.819 239.672 297.695H240.356H241.04C241.04 296.573 241.948 295.666 243.069 295.666C244.193 295.666 245.098 296.573 245.101 297.695C245.098 298.813 244.193 299.721 243.069 299.724C241.948 299.721 241.04 298.813 241.04 297.695H240.356Z"
        fill="#7D97F4" />
    <path
        d="M221.664 290.743H220.981C220.981 292.619 222.501 294.139 224.377 294.139C226.253 294.139 227.774 292.619 227.774 290.743C227.774 288.864 226.253 287.344 224.377 287.344C222.501 287.344 220.981 288.864 220.981 290.743H221.664H222.348C222.348 289.619 223.256 288.711 224.377 288.711C225.496 288.711 226.403 289.619 226.406 290.743C226.403 291.861 225.496 292.769 224.377 292.772C223.256 292.769 222.348 291.861 222.348 290.743H221.664Z"
        fill="#7D97F4" />
    <path
        d="M206.268 302.579H205.584C205.584 304.455 207.105 305.975 208.983 305.975C210.859 305.975 212.38 304.455 212.38 302.579C212.38 300.703 210.859 299.182 208.983 299.182C207.105 299.182 205.584 300.703 205.584 302.579H206.268H206.951C206.951 301.458 207.859 300.55 208.983 300.55C210.105 300.55 211.01 301.458 211.013 302.579C211.01 303.7 210.105 304.605 208.983 304.608C207.859 304.605 206.951 303.697 206.951 302.579H206.268Z"
        fill="#7D97F4" />
    <path
        d="M287.574 175.401H286.89C286.89 177.104 288.271 178.483 289.972 178.483C291.676 178.483 293.054 177.104 293.054 175.401C293.054 173.697 291.676 172.319 289.972 172.319C288.271 172.319 286.89 173.697 286.89 175.401H287.574H288.257C288.26 174.454 289.026 173.689 289.972 173.686C290.918 173.689 291.684 174.454 291.687 175.401C291.684 176.347 290.918 177.113 289.972 177.115C289.026 177.113 288.26 176.347 288.257 175.401H287.574Z"
        fill="#7D97F4" />
    <path
        d="M144.072 145.639H143.389C143.386 146.585 142.62 147.351 141.674 147.354C140.73 147.351 139.962 146.585 139.962 145.639C139.962 144.693 140.73 143.927 141.674 143.924C142.62 143.927 143.386 144.693 143.389 145.639H144.072H144.756C144.753 143.938 143.375 142.557 141.674 142.557C139.973 142.56 138.595 143.938 138.595 145.639C138.595 147.34 139.973 148.718 141.674 148.721C143.375 148.721 144.753 147.34 144.756 145.639H144.072Z"
        fill="#7D97F4" />
    <path
        d="M147.307 193.105H146.624C146.624 194.052 145.855 194.817 144.909 194.82C143.963 194.817 143.197 194.052 143.195 193.105C143.197 192.156 143.963 191.391 144.909 191.391C145.855 191.391 146.624 192.156 146.624 193.105H147.307H147.991C147.991 191.402 146.613 190.023 144.909 190.023C143.208 190.023 141.827 191.402 141.827 193.105C141.827 194.806 143.208 196.185 144.909 196.187C146.613 196.185 147.991 194.806 147.991 193.105H147.307Z"
        fill="#7D97F4" />
    <path
        d="M190.519 176.525H169.762C169.511 176.525 169.281 176.662 169.161 176.883L153.209 206.243C153.028 206.574 153.152 206.99 153.485 207.17C153.816 207.351 154.232 207.227 154.412 206.897L170.17 177.892H190.519C190.896 177.892 191.202 177.586 191.202 177.209C191.202 176.831 190.896 176.525 190.519 176.525"
        fill="#7D97F4" />
    <path
        d="M146.862 191.021L156.291 172.833C156.463 172.499 156.332 172.086 155.998 171.911C155.662 171.739 155.249 171.87 155.077 172.204L145.647 190.392C145.475 190.726 145.606 191.139 145.94 191.314C146.276 191.486 146.689 191.355 146.862 191.021Z"
        fill="#7D97F4" />
    <path
        d="M118.183 188.35H117.499C117.496 189.293 116.731 190.061 115.784 190.061C114.838 190.061 114.07 189.293 114.07 188.35C114.07 187.403 114.838 186.638 115.784 186.635C116.731 186.638 117.496 187.403 117.499 188.35H118.183H118.866C118.866 186.649 117.485 185.27 115.784 185.268C114.081 185.27 112.702 186.649 112.702 188.35C112.702 190.051 114.081 191.429 115.784 191.429C117.485 191.429 118.866 190.051 118.866 188.35H118.183Z"
        fill="#7D97F4" />
    <path
        d="M117.803 186.266L124.765 172.833C124.94 172.499 124.809 172.086 124.472 171.911C124.139 171.739 123.726 171.87 123.551 172.204L116.588 185.637C116.416 185.973 116.547 186.386 116.881 186.558C117.217 186.733 117.63 186.602 117.803 186.266Z"
        fill="#7D97F4" />
    <path
        d="M193.691 145.639V113.386L193.645 113.137L184.937 90.734C184.798 90.384 184.404 90.2089 184.051 90.3457C183.698 90.4824 183.523 90.879 183.663 91.229L192.324 113.514V145.639C192.324 146.016 192.63 146.323 193.007 146.323C193.385 146.323 193.691 146.016 193.691 145.639"
        fill="#7D97F4" />
    <path
        d="M223.023 89.6347L206.544 110.536L206.399 110.96V145.639C206.399 146.016 206.705 146.323 207.083 146.323C207.46 146.323 207.766 146.016 207.766 145.639V111.195L224.095 90.4797C224.331 90.1843 224.279 89.755 223.983 89.5199C223.685 89.2874 223.256 89.3366 223.023 89.6347Z"
        fill="#7D97F4" />
    <path
        d="M240.774 96.2773L220.603 123.592L220.469 123.996V145.639C220.469 146.016 220.776 146.323 221.153 146.323C221.53 146.323 221.837 146.016 221.837 145.639V124.221L241.874 97.0895C242.098 96.786 242.035 96.3594 241.732 96.1351C241.428 95.9109 240.999 95.9738 240.774 96.2773Z"
        fill="#7D97F4" />
    <path
        d="M273.875 113.41L247.031 153.072H224.932C224.555 153.072 224.249 153.378 224.249 153.755C224.249 154.133 224.555 154.439 224.932 154.439H247.395L247.961 154.138L275.008 114.176C275.221 113.861 275.139 113.438 274.827 113.227C274.513 113.014 274.089 113.096 273.875 113.41"
        fill="#7D97F4" />
    <path
        d="M295.819 129.627L275.79 157.762H224.932C224.555 157.762 224.249 158.068 224.249 158.445C224.249 158.823 224.555 159.129 224.932 159.129H276.143L276.698 158.842L296.934 130.42C297.153 130.111 297.079 129.684 296.773 129.466C296.464 129.247 296.037 129.318 295.819 129.627"
        fill="#7D97F4" />
    <path
        d="M308.707 149.254L290.82 173.139C290.593 173.443 290.655 173.872 290.956 174.096C291.26 174.323 291.686 174.263 291.913 173.96L309.801 150.075C310.028 149.774 309.965 149.345 309.665 149.118C309.361 148.893 308.934 148.954 308.707 149.254Z"
        fill="#7D97F4" />
    <path
        d="M300.356 188.221H299.672C299.672 189.925 301.05 191.303 302.754 191.303C304.455 191.303 305.836 189.925 305.836 188.221C305.836 186.52 304.455 185.142 302.754 185.142C301.05 185.142 299.672 186.52 299.672 188.221H300.356H301.039C301.042 187.275 301.808 186.509 302.754 186.509C303.7 186.509 304.466 187.275 304.469 188.221C304.466 189.17 303.7 189.936 302.754 189.936C301.808 189.936 301.042 189.17 301.039 188.221H300.356Z"
        fill="#7D97F4" />
    <path
        d="M314.24 171.077L303.503 185.415C303.276 185.716 303.336 186.145 303.64 186.372C303.941 186.597 304.37 186.536 304.597 186.233L315.334 171.895C315.561 171.594 315.5 171.165 315.197 170.938C314.896 170.713 314.467 170.774 314.24 171.077Z"
        fill="#7D97F4" />
    <path
        d="M224.932 177.892H239.557L243.698 236.538C243.725 236.913 244.051 237.197 244.428 237.17C244.805 237.145 245.087 236.817 245.063 236.44L240.876 177.162C240.851 176.804 240.553 176.525 240.195 176.525H224.932C224.555 176.525 224.249 176.831 224.249 177.208C224.249 177.586 224.555 177.892 224.932 177.892"
        fill="#7D97F4" />
    <path
        d="M179.654 220.269L192.395 195.4H224.298C224.678 195.4 224.981 195.093 224.981 194.716C224.981 194.336 224.678 194.032 224.298 194.032H191.976C191.719 194.032 191.484 194.174 191.369 194.404L178.437 219.645C178.264 219.982 178.398 220.395 178.735 220.567C179.071 220.737 179.481 220.605 179.654 220.269Z"
        fill="#7D97F4" />
    <path
        d="M210.058 208.469L212.317 248.155L205.806 254.081L205.584 254.62L207.775 299.239C207.794 299.617 208.114 299.907 208.491 299.888C208.869 299.868 209.158 299.548 209.139 299.171L206.965 254.877L213.479 248.948L213.701 248.404L211.423 208.392C211.401 208.015 211.078 207.728 210.701 207.75C210.323 207.769 210.036 208.094 210.058 208.469"
        fill="#7D97F4" />
    <path
        d="M219.099 207.375L223.693 288.066C223.715 288.443 224.038 288.73 224.415 288.708C224.793 288.686 225.08 288.364 225.058 287.986L220.464 207.299C220.442 206.921 220.119 206.631 219.742 206.653C219.364 206.675 219.077 206.998 219.099 207.375"
        fill="#7D97F4" />
    <path
        d="M226.863 207.375L229.672 256.655C229.688 256.947 229.888 257.193 230.169 257.273L241.029 260.314L242.385 295.006C242.399 295.384 242.719 295.679 243.096 295.663C243.471 295.649 243.766 295.332 243.753 294.954L242.377 259.764C242.363 259.466 242.164 259.212 241.877 259.132L231.009 256.088L228.23 207.299C228.208 206.921 227.886 206.631 227.508 206.653C227.131 206.675 226.844 206.998 226.863 207.375"
        fill="#7D97F4" />
    <path
        d="M235.346 206.886L237.712 248.467C237.728 248.768 237.939 249.019 238.228 249.093L251.943 252.501L255.646 304.285C255.673 304.662 255.999 304.947 256.376 304.92C256.753 304.892 257.038 304.564 257.01 304.189L253.272 251.907C253.25 251.615 253.04 251.366 252.752 251.295L239.049 247.887L236.711 206.809C236.689 206.432 236.366 206.144 235.989 206.164C235.611 206.185 235.324 206.508 235.346 206.886"
        fill="#7D97F4" />
</svg>