<svg width="882" height="900" viewBox="0 0 882 900" fill="none" xmlns="http://www.w3.org/2000/svg">
<path d="M241.051 286.725L158.347 429.968L160.573 431.253L243.276 288.01" fill="#83CDFF" fill-opacity="0.2"/>
<path d="M567.776 571.555C570.718 569.89 571.756 566.156 570.091 563.214C568.431 560.269 564.697 559.233 561.752 560.896C558.81 562.561 557.772 566.295 559.434 569.235C561.097 572.18 564.831 573.218 567.776 571.555Z" fill="#83CDFF" fill-opacity="0.2"/>
<path d="M601.386 500.085L518.683 643.327L520.908 644.612L603.612 501.369" fill="#83CDFF" fill-opacity="0.2"/>
<path d="M614.526 580.488L743.688 341.374L701.243 232.421L881.84 -78.8398L872.949 -84L689.869 231.542L732.384 340.673L605.483 575.603L614.526 580.488Z" fill="#83CDFF" fill-opacity="0.2"/>
<path d="M615.607 592.795H610.468C610.465 594.91 609.625 596.775 608.242 598.166C606.852 599.548 604.986 600.386 602.871 600.391C600.759 600.388 598.893 599.548 597.501 598.166C596.121 596.775 595.28 594.91 595.278 592.795C595.28 590.682 596.121 588.817 597.503 587.426C598.894 586.044 600.759 585.204 602.871 585.201C604.986 585.204 606.852 586.044 608.242 587.426C609.625 588.817 610.465 590.682 610.468 592.795H615.607H620.747C620.744 582.922 612.745 574.927 602.871 574.922C592.998 574.927 585.001 582.924 584.999 592.795C585.001 602.67 593.001 610.665 602.871 610.668C612.745 610.668 620.744 602.67 620.747 592.795H615.607Z" fill="#83CDFF" fill-opacity="0.2"/>
<path d="M156.317 344.73L27.1518 583.842L69.5969 692.795L-111 1004.06L-102.109 1009.21L80.9708 693.674L38.4563 584.543L165.36 349.616L156.317 344.73Z" fill="#83CDFF" fill-opacity="0.2"/>
<path d="M155.235 332.419H160.375C160.377 330.306 161.215 328.441 162.597 327.05C163.988 325.668 165.856 324.828 167.968 324.825C170.081 324.828 171.946 325.668 173.337 327.05C174.719 328.441 175.56 330.306 175.562 332.419C175.56 334.534 174.719 336.399 173.337 337.79C171.946 339.172 170.081 340.012 167.968 340.015C165.856 340.012 163.988 339.172 162.597 337.79C161.215 336.399 160.377 334.534 160.375 332.419H155.235H150.095C150.098 342.292 158.095 350.289 167.968 350.294C177.842 350.289 185.836 342.292 185.841 332.419C185.836 322.546 177.842 314.551 167.968 314.546C158.095 314.551 150.098 322.546 150.095 332.419H155.235Z" fill="#83CDFF" fill-opacity="0.2"/>
<path d="M223.8 258.928C212.536 258.928 203.401 249.792 203.401 238.526C203.401 227.26 212.536 218.125 223.8 218.125C235.068 218.125 244.204 227.26 244.204 238.526C244.204 249.792 235.068 258.928 223.8 258.928ZM247.922 238.526C247.922 238.254 247.909 237.984 247.902 237.714L250.687 237.421L250.33 234.016L247.547 234.309C247.452 233.772 247.341 233.243 247.216 232.719L249.87 231.855L248.814 228.599L246.157 229.463C245.949 228.959 245.733 228.463 245.496 227.977L247.914 226.582L246.2 223.616L243.785 225.014C243.479 224.565 243.155 224.13 242.824 223.704L244.903 221.83L242.613 219.286L240.531 221.16C240.141 220.785 239.74 220.42 239.324 220.07L240.971 217.809L238.201 215.794L236.556 218.058C236.096 217.77 235.631 217.498 235.15 217.241L236.289 214.692L233.161 213.299L232.023 215.845C231.517 215.663 231 215.501 230.479 215.349L231.059 212.615L227.711 211.903L227.128 214.64C226.596 214.566 226.056 214.512 225.514 214.473V211.672H222.088V214.473C221.546 214.512 221.006 214.566 220.474 214.64L219.893 211.903L216.543 212.615L217.126 215.349C216.604 215.501 216.083 215.663 215.576 215.845L214.443 213.299L211.316 214.692L212.451 217.241C211.973 217.498 211.503 217.77 211.046 218.058L209.404 215.794L206.633 217.809L208.275 220.07C207.862 220.42 207.461 220.785 207.073 221.16L204.991 219.286L202.699 221.83L204.781 223.704C204.447 224.13 204.123 224.565 203.819 225.014L201.399 223.616L199.687 226.582L202.105 227.977C201.869 228.463 201.653 228.959 201.448 229.463L198.79 228.599L197.734 231.855L200.389 232.719C200.26 233.243 200.15 233.772 200.055 234.309L197.274 234.016L196.914 237.421L199.7 237.714C199.692 237.984 199.682 238.254 199.682 238.526C199.682 238.799 199.692 239.069 199.7 239.338L196.914 239.631L197.274 243.036L200.055 242.743C200.15 243.28 200.26 243.81 200.389 244.334L197.734 245.197L198.79 248.453L201.448 247.59C201.653 248.094 201.869 248.59 202.108 249.075L199.687 250.471L201.399 253.436L203.819 252.038C204.123 252.488 204.447 252.922 204.781 253.349L202.699 255.222L204.991 257.766L207.073 255.893C207.461 256.268 207.862 256.633 208.275 256.983L206.633 259.247L209.404 261.259L211.046 258.995C211.503 259.283 211.973 259.555 212.451 259.809L211.316 262.361L214.443 263.754L215.576 261.207C216.085 261.392 216.604 261.554 217.126 261.703L216.543 264.438L219.893 265.149L220.474 262.412C221.006 262.487 221.546 262.541 222.088 262.58V265.381H225.514V262.58C226.056 262.541 226.596 262.487 227.128 262.412L227.711 265.149L231.059 264.438L230.479 261.703C231 261.554 231.517 261.392 232.023 261.207L233.161 263.754L236.289 262.361L235.15 259.812C235.631 259.555 236.096 259.283 236.556 258.995L238.201 261.259L240.971 259.247L239.324 256.983C239.74 256.633 240.141 256.268 240.531 255.893L242.613 257.766L244.903 255.222L242.824 253.349C243.155 252.922 243.479 252.488 243.785 252.038L246.2 253.436L247.914 250.471L245.496 249.075C245.733 248.59 245.949 248.094 246.157 247.59L248.814 248.453L249.87 245.197L247.216 244.334C247.341 243.81 247.452 243.28 247.547 242.743L250.33 243.036L250.687 239.631L247.902 239.338C247.909 239.069 247.922 238.799 247.922 238.526Z" fill="#83CDFF" fill-opacity="0.2"/>
<path d="M461.89 708.708C455.35 708.708 450.046 703.404 450.046 696.863C450.046 690.323 455.35 685.019 461.89 685.019C468.433 685.019 473.735 690.323 473.735 696.863C473.735 703.404 468.433 708.708 461.89 708.708ZM475.893 696.863L475.88 696.393L477.499 696.224L477.291 694.245L475.675 694.414C475.618 694.103 475.557 693.795 475.482 693.492L477.024 692.991L476.41 691.099L474.868 691.603C474.75 691.308 474.624 691.02 474.485 690.74L475.888 689.928L474.894 688.206L473.49 689.018C473.313 688.758 473.126 688.506 472.933 688.257L474.141 687.17L472.812 685.693L471.602 686.782C471.376 686.564 471.142 686.353 470.905 686.15L471.859 684.834L470.25 683.668L469.297 684.981C469.029 684.814 468.76 684.657 468.479 684.508L469.14 683.025L467.323 682.216L466.665 683.696C466.37 683.59 466.072 683.495 465.766 683.408L466.102 681.82L464.16 681.409L463.823 682.997C463.515 682.953 463.198 682.922 462.882 682.899V681.273H460.896V682.899C460.582 682.922 460.269 682.953 459.961 682.997L459.621 681.409L457.676 681.82L458.015 683.408C457.712 683.495 457.411 683.59 457.116 683.696L456.455 682.216L454.641 683.025L455.301 684.508C455.024 684.657 454.752 684.814 454.487 684.981L453.531 683.668L451.925 684.834L452.878 686.15C452.637 686.353 452.403 686.564 452.177 686.782L450.971 685.693L449.64 687.17L450.848 688.257C450.655 688.506 450.465 688.758 450.29 689.018L448.885 688.206L447.89 689.928L449.296 690.74C449.16 691.02 449.034 691.308 448.913 691.603L447.371 691.099L446.757 692.991L448.299 693.492C448.224 693.795 448.16 694.103 448.104 694.414L446.492 694.245L446.282 696.224L447.898 696.393L447.888 696.863L447.898 697.334L446.282 697.506L446.492 699.482L448.104 699.312C448.16 699.623 448.224 699.932 448.299 700.235L446.757 700.733L447.371 702.627L448.913 702.124C449.034 702.417 449.16 702.705 449.296 702.987L447.89 703.797L448.885 705.518L450.29 704.706C450.465 704.969 450.655 705.22 450.848 705.467L449.64 706.557L450.971 708.032L452.177 706.945C452.403 707.163 452.637 707.374 452.878 707.577L451.925 708.89L453.531 710.059L454.487 708.746C454.752 708.913 455.024 709.072 455.301 709.219L454.641 710.699L456.455 711.509L457.116 710.031C457.411 710.139 457.712 710.231 458.015 710.319L457.676 711.904L459.621 712.318L459.961 710.73C460.269 710.774 460.582 710.805 460.896 710.828V712.452H462.882V710.828C463.198 710.805 463.515 710.774 463.823 710.73L464.16 712.318L466.102 711.904L465.766 710.319C466.072 710.231 466.37 710.139 466.665 710.031L467.323 711.509L469.14 710.699L468.479 709.219C468.76 709.072 469.029 708.913 469.297 708.746L470.25 710.059L471.859 708.89L470.905 707.577C471.142 707.374 471.376 707.163 471.602 706.945L472.812 708.032L474.141 706.557L472.933 705.467C473.126 705.22 473.313 704.969 473.49 704.706L474.894 705.518L475.888 703.797L474.485 702.987C474.624 702.705 474.75 702.417 474.868 702.124L476.41 702.627L477.024 700.733L475.482 700.235C475.557 699.932 475.618 699.623 475.675 699.312L477.291 699.482L477.499 697.506L475.88 697.334L475.893 696.863Z" fill="#83CDFF" fill-opacity="0.2"/>
<path d="M429.722 98.1055C423.868 98.1055 419.119 93.3591 419.119 87.5026C419.119 81.6434 423.868 76.897 429.722 76.897C435.578 76.897 440.327 81.6434 440.327 87.5026C440.327 93.3591 435.578 98.1055 429.722 98.1055ZM446.6 90.4039L445.356 89.9516C444.665 89.6997 444.239 89.0213 444.277 88.2864C444.293 88.0268 444.3 87.7647 444.3 87.5026C444.3 87.2507 444.293 87.0015 444.28 86.7522L446.788 86.0789C447.669 85.845 448.188 84.9404 447.952 84.0641L447.23 81.3633C446.996 80.487 446.091 79.9628 445.21 80.1992L443.93 80.5435C443.223 80.7311 442.486 80.4254 442.101 79.8035L441.931 79.5414C441.53 78.9272 441.563 78.128 442.034 77.5652L442.887 76.5475C443.473 75.8511 443.383 74.8129 442.684 74.2296L440.543 72.4333C439.847 71.8474 438.806 71.9373 438.223 72.6363L437.372 73.6488C436.904 74.2065 436.128 74.3863 435.463 74.1011C434.967 73.8878 434.461 73.7028 433.939 73.546C433.242 73.3353 432.767 72.7006 432.767 71.9759V70.6499C432.767 69.7402 432.03 69.0027 431.12 69.0027H428.326C427.417 69.0027 426.679 69.7402 426.679 70.6499V71.9708C426.679 72.7057 426.188 73.3379 425.487 73.5512L425.186 73.6437C424.49 73.8724 423.729 73.6334 423.308 73.0321L422.55 71.9502C422.028 71.2075 421.003 71.0251 420.257 71.5467L417.968 73.1503C417.222 73.6719 417.043 74.6999 417.564 75.4426L418.325 76.5296C418.746 77.1309 418.708 77.9301 418.255 78.5083L418.065 78.7524C417.626 79.3383 416.863 79.5825 416.176 79.3306L414.928 78.8783C414.074 78.5648 413.129 79.0068 412.818 79.8626L411.862 82.4863C411.551 83.3421 411.993 84.2877 412.849 84.5987L414.09 85.051C414.784 85.3028 415.21 85.9812 415.167 86.7162C415.154 86.9757 415.146 87.2379 415.146 87.5026C415.146 87.7518 415.151 88.0011 415.164 88.2503L412.658 88.9237C411.78 89.1575 411.258 90.062 411.492 90.9383L412.216 93.6392C412.45 94.518 413.355 95.0397 414.234 94.8033L415.514 94.4616C416.22 94.2714 416.958 94.5772 417.348 95.1991L417.513 95.4612C417.914 96.0754 417.883 96.8745 417.41 97.4373L416.559 98.4524C415.976 99.1514 416.066 100.19 416.762 100.775L418.903 102.569C419.599 103.155 420.638 103.065 421.224 102.366L422.077 101.351C422.542 100.796 423.315 100.616 423.984 100.901C424.477 101.115 424.986 101.3 425.507 101.457C426.201 101.667 426.679 102.302 426.679 103.029V104.353C426.679 105.262 427.417 106 428.326 106H431.12C432.03 106 432.767 105.262 432.767 104.353V103.032C432.767 102.297 433.255 101.665 433.959 101.451L434.258 101.359C434.954 101.13 435.717 101.369 436.136 101.97L436.894 103.05C437.416 103.795 438.444 103.977 439.189 103.456L441.476 101.855C442.221 101.331 442.404 100.303 441.882 99.5574L441.121 98.473C440.703 97.8716 440.736 97.0724 441.191 96.4968L441.378 96.2475C441.82 95.6642 442.581 95.4226 443.272 95.6719L444.516 96.1242C445.372 96.4377 446.317 95.9957 446.628 95.14L447.582 92.5162C447.893 91.6605 447.456 90.7148 446.6 90.4039Z" fill="#83CDFF" fill-opacity="0.2"/>
<path d="M223.8 744.497C217.946 744.497 213.197 739.748 213.197 733.891C213.197 728.035 217.946 723.289 223.8 723.289C229.659 723.289 234.405 728.035 234.405 733.891C234.405 739.748 229.659 744.497 223.8 744.497ZM240.678 736.795L239.434 736.343C238.743 736.089 238.316 735.413 238.355 734.675C238.37 734.418 238.378 734.154 238.378 733.891C238.378 733.64 238.37 733.39 238.357 733.144L240.866 732.47C241.747 732.234 242.266 731.332 242.032 730.453L241.308 727.755C241.074 726.876 240.169 726.354 239.293 726.591L238.01 726.933C237.301 727.123 236.564 726.817 236.178 726.195L236.009 725.93C235.608 725.316 235.641 724.517 236.111 723.957L236.965 722.939C237.551 722.243 237.461 721.202 236.762 720.619L234.621 718.822C233.925 718.239 232.884 718.329 232.3 719.028L231.45 720.04C230.982 720.598 230.206 720.775 229.54 720.49C229.045 720.279 228.538 720.094 228.017 719.935C227.32 719.727 226.845 719.09 226.845 718.365V717.039C226.845 716.132 226.107 715.392 225.198 715.392H222.404C221.494 715.392 220.757 716.132 220.757 717.039V718.362C220.757 719.095 220.266 719.729 219.565 719.94L219.266 720.035C218.57 720.261 217.807 720.022 217.385 719.424L216.627 718.342C216.108 717.596 215.08 717.417 214.335 717.938L212.045 719.539C211.3 720.061 211.12 721.089 211.642 721.834L212.403 722.919C212.824 723.522 212.785 724.319 212.333 724.897L212.143 725.141C211.704 725.73 210.94 725.971 210.254 725.722L209.005 725.267C208.152 724.956 207.207 725.396 206.896 726.252L205.94 728.878C205.629 729.734 206.071 730.679 206.926 730.99L208.168 731.442C208.861 731.692 209.288 732.373 209.247 733.105C209.232 733.367 209.224 733.627 209.224 733.891C209.224 734.141 209.229 734.393 209.242 734.642L206.736 735.313C205.857 735.546 205.336 736.451 205.572 737.33L206.294 740.028C206.531 740.907 207.433 741.429 208.311 741.195L209.591 740.85C210.3 740.66 211.035 740.969 211.426 741.591L211.591 741.85C211.994 742.467 211.963 743.266 211.49 743.829L210.637 744.841C210.054 745.54 210.144 746.579 210.84 747.164L212.981 748.961C213.677 749.547 214.715 749.454 215.301 748.758L216.154 747.743C216.62 747.188 217.393 747.005 218.064 747.293C218.555 747.506 219.066 747.691 219.585 747.845C220.279 748.056 220.757 748.691 220.757 749.418V750.742C220.757 751.654 221.494 752.391 222.404 752.391H225.198C226.107 752.391 226.845 751.654 226.845 750.742V749.423C226.845 748.688 227.333 748.054 228.037 747.84L228.335 747.748C229.032 747.519 229.795 747.758 230.214 748.362L230.972 749.441C231.494 750.189 232.521 750.369 233.267 749.847L235.556 748.244C236.302 747.722 236.482 746.694 235.962 745.949L235.199 744.862C234.78 744.263 234.816 743.461 235.269 742.886L235.459 742.639C235.898 742.053 236.659 741.812 237.35 742.061L238.594 742.516C239.45 742.827 240.395 742.385 240.706 741.529L241.66 738.905C241.973 738.052 241.534 737.106 240.678 736.795Z" fill="#83CDFF" fill-opacity="0.2"/>
<path d="M536.751 674.917C533.125 674.917 530.188 671.98 530.188 668.354C530.188 664.731 533.125 661.791 536.751 661.791C540.374 661.791 543.311 664.731 543.311 668.354C543.311 671.98 540.374 674.917 536.751 674.917ZM547.192 670.15L546.424 669.873C545.994 669.714 545.732 669.295 545.755 668.84L545.771 668.354L545.758 667.892L547.31 667.475C547.855 667.329 548.176 666.771 548.03 666.226L547.582 664.556C547.439 664.011 546.878 663.69 546.334 663.837L545.542 664.047C545.105 664.165 544.648 663.975 544.409 663.59L544.303 663.428C544.057 663.048 544.077 662.554 544.368 662.205L544.894 661.578C545.257 661.146 545.203 660.501 544.771 660.141L543.445 659.028C543.013 658.666 542.371 658.725 542.009 659.157L541.482 659.784C541.194 660.128 540.716 660.239 540.3 660.061C539.994 659.928 539.68 659.817 539.359 659.717C538.927 659.589 538.634 659.193 538.634 658.748V657.926C538.634 657.363 538.177 656.908 537.614 656.908H535.885C535.322 656.908 534.865 657.363 534.865 657.926V658.746C534.865 659.198 534.564 659.591 534.127 659.72L533.945 659.779C533.513 659.92 533.04 659.774 532.78 659.401L532.31 658.733C531.989 658.27 531.352 658.157 530.892 658.481L529.476 659.473C529.016 659.797 528.903 660.432 529.227 660.892L529.694 661.565C529.956 661.937 529.933 662.431 529.653 662.788L529.535 662.94C529.262 663.305 528.792 663.454 528.366 663.299L527.595 663.019C527.065 662.824 526.479 663.099 526.287 663.626L525.698 665.252C525.505 665.782 525.775 666.365 526.305 666.558L527.076 666.838C527.502 666.992 527.767 667.414 527.744 667.869L527.728 668.354L527.741 668.817L526.189 669.236C525.644 669.38 525.32 669.94 525.469 670.482L525.917 672.152C526.06 672.695 526.621 673.018 527.163 672.874L527.957 672.661C528.396 672.546 528.849 672.733 529.09 673.119L529.193 673.28C529.442 673.661 529.422 674.157 529.131 674.504L528.605 675.131C528.242 675.562 528.299 676.205 528.728 676.567L530.054 677.68C530.483 678.04 531.128 677.986 531.49 677.554L532.017 676.927C532.305 676.583 532.786 676.47 533.199 676.647C533.505 676.778 533.819 676.894 534.14 676.991C534.572 677.12 534.865 677.513 534.865 677.963V678.782C534.865 679.345 535.322 679.803 535.885 679.803H537.614C538.177 679.803 538.634 679.345 538.634 678.782V677.965C538.634 677.51 538.935 677.12 539.372 676.986L539.554 676.93C539.986 676.788 540.459 676.937 540.719 677.307L541.186 677.978C541.51 678.441 542.145 678.551 542.607 678.23L544.026 677.235C544.483 676.914 544.596 676.277 544.273 675.817L543.805 675.144C543.543 674.774 543.566 674.278 543.846 673.92L543.964 673.766C544.237 673.406 544.707 673.255 545.133 673.412L545.904 673.692C546.434 673.884 547.02 673.612 547.212 673.083L547.801 671.459C547.996 670.929 547.721 670.343 547.192 670.15Z" fill="#83CDFF" fill-opacity="0.2"/>
<path d="M626.896 18.198C623.273 18.198 620.333 15.2607 620.333 11.6347C620.333 8.01131 623.273 5.0741 626.896 5.0741C630.522 5.0741 633.457 8.01131 633.457 11.6347C633.457 15.2607 630.522 18.198 626.896 18.198ZM637.34 13.4336L636.569 13.151C636.143 12.9968 635.878 12.5779 635.906 12.1231L635.916 11.6347L635.906 11.1722L637.458 10.7559C638.001 10.612 638.324 10.0518 638.178 9.50698L637.728 7.83662C637.584 7.2944 637.027 6.97322 636.482 7.11713L635.69 7.33032C635.253 7.44596 634.796 7.25842 634.554 6.87295L634.452 6.71108C634.202 6.33076 634.223 5.83478 634.516 5.48529L635.045 4.85828C635.405 4.42655 635.348 3.78402 634.917 3.42168L633.593 2.31158C633.162 1.94924 632.519 2.00577 632.157 2.43492L631.627 3.06457C631.34 3.40892 630.862 3.51938 630.448 3.34464C630.142 3.21101 629.826 3.09798 629.505 3.00033C629.076 2.87184 628.78 2.47608 628.78 2.02637V1.20913C628.78 0.643776 628.323 0.188869 627.763 0.188869H626.033C625.47 0.188869 625.013 0.643776 625.013 1.20913V2.02637C625.013 2.48122 624.71 2.87178 624.275 3.00284L624.09 3.06194C623.659 3.2007 623.186 3.05423 622.929 2.68161L622.458 2.01344C622.135 1.55088 621.5 1.44039 621.037 1.76161L619.624 2.75615C619.161 3.07737 619.048 3.71468 619.372 4.17467L619.845 4.84535C620.102 5.21797 620.079 5.71144 619.799 6.06864L619.683 6.22285C619.411 6.58519 618.938 6.73415 618.514 6.57996L617.74 6.29989C617.211 6.10716 616.628 6.37959 616.435 6.90896L615.844 8.53302C615.651 9.0624 615.923 9.64833 616.453 9.8385L617.221 10.1186C617.65 10.2753 617.915 10.6943 617.889 11.1491L617.876 11.6347L617.887 12.0999L616.335 12.5162C615.792 12.6601 615.469 13.2203 615.615 13.7651L616.062 15.4354C616.206 15.9777 616.766 16.299 617.311 16.1551L618.105 15.9417C618.542 15.8261 618.997 16.0163 619.238 16.4017L619.341 16.5636C619.591 16.9414 619.57 17.4373 619.277 17.7843L618.75 18.4139C618.388 18.8456 618.444 19.488 618.876 19.8504L620.2 20.9605C620.631 21.3228 621.274 21.2664 621.636 20.8346L622.163 20.2076C622.453 19.8633 622.931 19.7527 623.345 19.9274C623.651 20.0611 623.964 20.1742 624.288 20.2719C624.717 20.4029 625.013 20.7961 625.013 21.2458V22.0656C625.013 22.6283 625.47 23.0832 626.033 23.0832H627.763C628.323 23.0832 628.78 22.6283 628.78 22.0656V21.2458C628.78 20.7935 629.083 20.4003 629.518 20.2692L629.703 20.2128C630.134 20.0714 630.607 20.2178 630.867 20.5904L631.335 21.2586C631.658 21.7186 632.293 21.8317 632.756 21.5079L634.172 20.5185C634.632 20.1948 634.742 19.5599 634.421 19.0974L633.95 18.4267C633.688 18.0541 633.714 17.5607 633.992 17.2009L634.11 17.0493C634.385 16.687 634.853 16.5379 635.279 16.6921L636.053 16.9722C636.579 17.1649 637.165 16.8926 637.358 16.3632L637.949 14.739C638.142 14.2097 637.87 13.6237 637.34 13.4336Z" fill="#83CDFF" fill-opacity="0.2"/>
</svg>
